<svg xmlns="http://www.w3.org/2000/svg" xmlns:xlink="http://www.w3.org/1999/xlink" width="533" height="533" viewBox="0 0 533 533">
  <defs>
    <filter id="Tracé_1006" x="0" y="0" width="533" height="533" filterUnits="userSpaceOnUse">
      <feOffset dy="30" input="SourceAlpha"/>
      <feGaussianBlur stdDeviation="49.5" result="blur"/>
      <feFlood flood-color="#4f46f2"/>
      <feComposite operator="in" in2="blur"/>
      <feComposite in="SourceGraphic"/>
    </filter>
    <filter id="Tracé_20" x="33.712" y="33.712" width="465.577" height="465.577" filterUnits="userSpaceOnUse">
      <feOffset dy="30" input="SourceAlpha"/>
      <feGaussianBlur stdDeviation="49.5" result="blur-2"/>
      <feFlood flood-color="#4f46f2"/>
      <feComposite operator="in" in2="blur-2"/>
      <feComposite in="SourceGraphic"/>
    </filter>
    <filter id="Ellipse_100" x="166.5" y="143.5" width="198" height="197" filterUnits="userSpaceOnUse">
      <feOffset dy="3" input="SourceAlpha"/>
      <feGaussianBlur stdDeviation="13" result="blur-3"/>
      <feFlood flood-color="#ffc400" flood-opacity="0.533"/>
      <feComposite operator="in" in2="blur-3"/>
      <feComposite in="SourceGraphic"/>
    </filter>
  </defs>
  <g id="Groupe_106" data-name="Groupe 106" transform="translate(78.5 -224.5)">
    <g id="icn_add" transform="translate(70 343)">
      <g transform="matrix(1, 0, 0, 1, -148.5, -118.5)" filter="url(#Tracé_1006)">
        <path id="Tracé_1006-2" data-name="Tracé 1006" d="M118,0A118,118,0,1,1,0,118,118,118,0,0,1,118,0Z" transform="translate(148.5 118.5)" fill="#635aff"/>
      </g>
      <path id="Tracé_1005" data-name="Tracé 1005" d="M103.059,0A103.059,103.059,0,1,1,0,103.059,103.059,103.059,0,0,1,103.059,0Z" transform="translate(14.941 14.941)" fill="#5a52ff"/>
      <g transform="matrix(1, 0, 0, 1, -148.5, -118.5)" filter="url(#Tracé_20)">
        <path id="Tracé_20-2" data-name="Tracé 20" d="M84.288,0A84.288,84.288,0,1,1,0,84.288,84.288,84.288,0,0,1,84.288,0Z" transform="translate(182.21 152.21)" fill="#4f46f2"/>
      </g>
      <g id="Groupe_12" data-name="Groupe 12" transform="translate(75.856 75.856)">
        <path id="Tracé_18" data-name="Tracé 18" d="M83.618,39.974,43.1.677a2.2,2.2,0,0,0-3.13,0L.677,41.191a2.2,2.2,0,0,0,0,3.13l40.514,39.3a2.59,2.59,0,0,0,1.565.7,1.888,1.888,0,0,0,1.565-.7L83.618,43.1a2.59,2.59,0,0,0,.7-1.565A1.7,1.7,0,0,0,83.618,39.974ZM42.756,79.1,5.2,42.756,41.539,5.2,79.1,41.539Z" transform="translate(-0.025 -0.025)" fill="#4f46f2"/>
        <path id="Tracé_19" data-name="Tracé 19" d="M27.84,16.087V26.84H17.087A2.114,2.114,0,0,0,15,28.926a2.244,2.244,0,0,0,2.087,2.087H27.84V41.592a2.114,2.114,0,0,0,2.087,2.087,2.244,2.244,0,0,0,2.087-2.087V31.013H42.592a2.114,2.114,0,0,0,2.087-2.087,1.967,1.967,0,0,0-1.913-2.087H32.187V16.087A2.114,2.114,0,0,0,30.1,14,2.416,2.416,0,0,0,27.84,16.087Z" transform="translate(12.109 11.371)" fill="#4f46f2"/>
      </g>
    </g>
    <g id="undraw_transfer_money_rywa" transform="translate(110.742 396.707)">
      <g transform="matrix(1, 0, 0, 1, -189.24, -172.21)" filter="url(#Ellipse_100)">
        <ellipse id="Ellipse_100-2" data-name="Ellipse 100" cx="60" cy="59.5" rx="60" ry="59.5" transform="translate(205.5 179.5)" fill="#ffc502" opacity="0.999"/>
      </g>
      <path id="Tracé_1082" data-name="Tracé 1082" d="M853.773,435.944s.31,1.034-1.448,1.964-2.275,4.446-.207,5.48,2.688,2.378,1.654,3.309-2.895,3.412-.414,4.032,2.792,1.861,2.068,2.378,1.654-.931,1.654-.931.414,2.481,2.585,1.861,8.271-12.407,5.17-14.061S853.773,435.944,853.773,435.944Z" transform="translate(-723.454 -374.581)" fill="#2f2e41"/>
      <path id="Tracé_1083" data-name="Tracé 1083" d="M871.918,490.845s1.072,3.754-.8,4.022a7.326,7.326,0,0,0-3.217,1.341l3.486,4.558h6.435l4.022-4.022s-5.362-4.022-4.29-6.435S871.918,490.845,871.918,490.845Z" transform="translate(-737.851 -419.498)" fill="#ffb9b9"/>
      <path id="Tracé_1084" data-name="Tracé 1084" d="M871.918,490.845s1.072,3.754-.8,4.022a7.326,7.326,0,0,0-3.217,1.341l3.486,4.558h6.435l4.022-4.022s-5.362-4.022-4.29-6.435S871.918,490.845,871.918,490.845Z" transform="translate(-737.851 -419.498)" opacity="0.1"/>
      <path id="Tracé_1085" data-name="Tracé 1085" d="M852.787,719.862l6.167,2.145,4.29.268-.268-3.754-8.848-2.617Z" transform="translate(-717.111 -601.861)" fill="#ffb9b9"/>
      <path id="Tracé_1086" data-name="Tracé 1086" d="M953,768.056s0,3.754.536,3.754,7.776-.8,9.921,0,5.363-2.145,3.754-3.754-4.233-4.022-5.87-3.486S953,766.448,953,766.448Z" transform="translate(-809.418 -650.86)" fill="#575a89"/>
      <path id="Tracé_1087" data-name="Tracé 1087" d="M819.568,764.974s-3.217,6.435-1.073,6.971a7.438,7.438,0,0,0,4.826-.536c.268-.268,4.022-1.341,4.558-.8s.536-2.145.536-2.145Z" transform="translate(-695.69 -651.263)" fill="#575a89"/>
      <path id="Tracé_1088" data-name="Tracé 1088" d="M831.607,709.359s-5.094,6.971-1.341,8.848,21.718,1.877,23.059,0,1.877-7.776,0-8.312S831.607,709.359,831.607,709.359Z" transform="translate(-705.048 -604.496)" fill="#2f2e41"/>
      <path id="Tracé_1089" data-name="Tracé 1089" d="M831.607,709.359s-5.094,6.971-1.341,8.848,21.718,1.877,23.059,0,1.877-7.776,0-8.312S831.607,709.359,831.607,709.359Z" transform="translate(-705.048 -604.496)" opacity="0.2"/>
      <circle id="Ellipse_103" data-name="Ellipse 103" cx="6.167" cy="6.167" r="6.167" transform="translate(130.045 60.89)" fill="#ffb9b9"/>
      <path id="Tracé_1090" data-name="Tracé 1090" d="M845.987,526.734l5.362-1.072s1.341,4.29,5.631,3.486,5.362-3.486,5.362-3.486S865.56,527,865.828,527s3.754,1.341,3.754,2.145S865.56,538,865.56,538l.536,14.479-19.841-.536,1.341-14.211Z" transform="translate(-719.428 -450.024)" fill="#6c63ff"/>
      <path id="Tracé_1091" data-name="Tracé 1091" d="M822.666,576.22s-1.609,14.211-.536,15.283,5.362,4.022,5.362,4.022v-3.218l-2.145-4.022,2.145-9.384Z" transform="translate(-699.056 -492.54)" fill="#ffb9b9"/>
      <path id="Tracé_1092" data-name="Tracé 1092" d="M972.825,573.692s-.938,14.613-.938,15.149-2.413,2.413-3.217,2.413-1.341-1.341-1.341-1.341l1.877-2.145-1.341-10.993Z" transform="translate(-821.464 -490.414)" fill="#ffb9b9"/>
      <path id="Tracé_1093" data-name="Tracé 1093" d="M919.971,686.871s12.066-6.7,12.334,0-6.167,9.384-6.167,9.384-16.624,4.985-17.294,3.163-2.011-4.771-.938-5.04,2.413-.8,2.949-.268,7.239-4.022,7.239-4.022Z" transform="translate(-771.157 -583.081)" fill="#2f2e41"/>
      <path id="Tracé_1094" data-name="Tracé 1094" d="M981.577,697.562a15.247,15.247,0,0,0-3.218,1.877c-.8.8-4.29,2.145-4.29,2.145" transform="translate(-827.133 -594.576)" fill="none" stroke="#000" stroke-miterlimit="10" stroke-width="2" opacity="0.2"/>
      <path id="Tracé_1095" data-name="Tracé 1095" d="M824.389,532.939l-1.609-.536s-5.9,6.167-4.022,7.776,2.949,2.145,3.486,2.681,3.218.8,3.218.8Z" transform="translate(-696.221 -455.693)" fill="#6c63ff"/>
      <path id="Tracé_1096" data-name="Tracé 1096" d="M959.285,544.2l2.413.536a39.374,39.374,0,0,0,2.413,4.558c.536.536-.8.268-1.609,1.341s-1.609,2.949-3.218,2.949-3.754-2.681-3.754-2.681Z" transform="translate(-811.544 -465.613)" fill="#6c63ff"/>
      <path id="Tracé_1097" data-name="Tracé 1097" d="M774.78,697.41s-10.189-7.239-13.674-1.877,15.015,12.6,17.7,13.674,5.094,2.145,5.094,2.145,2.413-5.9,2.413-6.971-1.877-1.073-2.413-1.073-2.949-.536-3.486-1.341S774.78,697.41,774.78,697.41Z" transform="translate(-647.684 -591.206)" fill="#2f2e41"/>
      <path id="Tracé_1098" data-name="Tracé 1098" d="M813.966,705.988a15.516,15.516,0,0,0,5.094,2.681,4.984,4.984,0,0,1,3.218,1.877" transform="translate(-692.501 -601.662)" fill="none" stroke="#000" stroke-miterlimit="10" stroke-width="2" opacity="0.2"/>
      <path id="Tracé_1099" data-name="Tracé 1099" d="M837.731,634.968l.214,11.352a1.421,1.421,0,0,0,1.437,1.394l21.126-.237a1.421,1.421,0,0,0,1.4-1.339l.641-11.115a1.421,1.421,0,0,0-1.419-1.5H839.151a1.421,1.421,0,0,0-1.421,1.448Z" transform="translate(-712.485 -540.723)" fill="#575a89"/>
      <path id="Tracé_1100" data-name="Tracé 1100" d="M891.173,423.04s.344,1.145-1.6,2.176-2.52,4.925-.229,6.071,2.978,2.634,1.833,3.665-3.207,3.78-.458,4.467,3.093,2.062,2.291,2.634,1.833-1.031,1.833-1.031.458,2.749,2.863,2.062,4.805-13.18,2.124-16.4C897.333,423.7,891.173,423.04,891.173,423.04Z" transform="translate(-754.632 -363.729)" fill="#2f2e41"/>
      <path id="Tracé_1101" data-name="Tracé 1101" d="M904.13,411.494c0-1.678,5.021-.472,7.173,1.871,1.491,1.622,3.754,4.063,1.857,5.784s3.252,3.976,4.633,4.66,4.107,2.775,1.646,4.178-2.422,2.819-1.5,3.154-2.043-.5-2.043-.5.3,2.771-2.2,2.757-9.678-13.761-7.964-17.582C907.329,412.265,904.13,411.494,904.13,411.494Z" transform="translate(-768.32 -353.363)" fill="#2f2e41"/>
      <path id="Tracé_1102" data-name="Tracé 1102" d="M871.919,413.2c-6.714-.4-7.387,4.649-7.387,4.649.046,2.924,4.691,1.5,5.98,1.935,1.556-1.12,4.556-3.238,6.7-4.749A10.146,10.146,0,0,0,871.919,413.2Z" transform="translate(-735.022 -355.433)" fill="#2f2e41"/>
      <path id="Tracé_1103" data-name="Tracé 1103" d="M667.885,358.618s-6.022-28.224-43.715-48.7" transform="translate(-532.901 -268.607)" fill="none" stroke="#3f3d56" stroke-miterlimit="10" stroke-width="2"/>
      <path id="Tracé_1104" data-name="Tracé 1104" d="M573.617,254.891l.075.309-1.525.37.48,1.494-.3.1-.585-1.819Z" transform="translate(-480.795 -214.193)" fill="#3f3d56"/>
      <path id="Tracé_1105" data-name="Tracé 1105" d="M68.8,754.341c0,3.575-2.125,4.823-4.746,4.823l-.182,0c-.121,0-.242-.008-.361-.017-2.366-.167-4.2-1.48-4.2-4.8,0-3.44,4.4-7.782,4.727-8.1h0l.019-.019S68.8,750.767,68.8,754.341Z" transform="translate(-57.905 -635.492)" fill="#6c63ff"/>
      <path id="Tracé_1106" data-name="Tracé 1106" d="M77.969,758.617l1.736-2.426-1.74,2.692,0,.279c-.121,0-.242-.008-.361-.017l.187-3.576v-.028l0-.005.018-.338-1.745-2.7,1.75,2.445,0,.072.141-2.7-1.494-2.789,1.512,2.314.147-5.6v0l-.025,4.418,1.487-1.751-1.493,2.132-.039,2.419,1.388-2.322-1.394,2.678-.022,1.345,2.016-3.232-2.023,3.7Z" transform="translate(-71.994 -635.492)" fill="#3f3d56"/>
      <path id="Tracé_1107" data-name="Tracé 1107" d="M212.557,787.463l1.015-.754s.672,3.754-.078,4.317-3.562,1.5-3.562,2.625-6.375,2.625-6.562.937a3.718,3.718,0,0,1,.562-2.625s3-3,3.375-3.562,1.312-1.687,1.312-1.687Z" transform="translate(-179.023 -669.54)" fill="#2f2e41"/>
      <path id="Tracé_1108" data-name="Tracé 1108" d="M167,487.113s.028.165.077.467c.045.268.107.647.182,1.114.787,4.805,3.084,18.951,2.929,19.418-.187.563-1.5,2.625,0,3.187a1.163,1.163,0,0,1,.467.508,10.9,10.9,0,0,1,.793,1.871,82.213,82.213,0,0,1,2.4,9.624c.242,1.264.407,2.28.456,2.812a1.531,1.531,0,0,1,.006.371c-.187.75,1.125,3.375,1.687,4.125s1.5,1.5,1.312,2.25,4.687,2.812,5.25,1.5a23.916,23.916,0,0,0,.75-2.437c.187-.375.375-3-.562-3.375s-.375-6.937-1.312-8.25a18.016,18.016,0,0,1-1.292-3.7c-.2-.7-.4-1.44-.591-2.184-.791-3.051-1.492-6.12-1.492-6.12l.188-21.936-10.312-1.312-.264.583-.527,1.157Z" transform="translate(-148.462 -415.874)" fill="#2f2e41"/>
      <path id="Tracé_1109" data-name="Tracé 1109" d="M126.348,720.755s-1.5-1.5-2.25,0-1.5,7.312-2.812,8.625-3,7.875-1.125,8.25,3.937-.563,4.125-1.687,4.125-6.937,4.125-7.5-2.625-2.625-2.625-2.625Z" transform="translate(-108.376 -613.518)" fill="#2f2e41"/>
      <path id="Tracé_1110" data-name="Tracé 1110" d="M179.315,430.476s-2.437,21.936-3,24-3.562,9.937-4.5,11.249-6.937,12-7.687,12.562-2.25,2.062-2.25,2.062-2.812,2.812-3.187,3.375-3.562-1.125-3.75-2.25a11.56,11.56,0,0,1,.375-3.75c.188-.75-.375-1.875.188-2.437s3.375-3.375,3.375-4.687,4.875-9,6.75-10.687a5.593,5.593,0,0,0,1.5-4.5V443.976l-10.312-3.187s.562-9,1.875-9S177.253,428.789,179.315,430.476Z" transform="translate(-138.282 -369.55)" fill="#2f2e41"/>
      <circle id="Ellipse_104" data-name="Ellipse 104" cx="6.187" cy="6.187" r="6.187" transform="translate(19.659 17.241)" fill="#9f616a"/>
      <path id="Tracé_1111" data-name="Tracé 1111" d="M182.317,211.273s.75,2.812,1.687,3.562-2.437,3.937-2.437,3.937l-6.375.375-1.125-3.562s2.062-4.125,1.5-6.75S182.317,211.273,182.317,211.273Z" transform="translate(-154.408 -182.97)" fill="#9f616a"/>
      <path id="Tracé_1112" data-name="Tracé 1112" d="M179,248.18s-1.687.188-2.062.75a6.719,6.719,0,0,1-5.062,1.875c-2.062-.375-3.375-.937-3.75-.75S167,254.179,167,254.179l2.062,6-.375,16.5-.562,4.5s-1.125-1.5,3.375-.562,10.312-.75,12.187-.937,5.062-.75,5.25-1.875a29.66,29.66,0,0,0-.562-5.25l-3-12.562-1.875-6.75Z" transform="translate(-148.462 -216.689)" fill="#6c63ff"/>
      <path id="Tracé_1113" data-name="Tracé 1113" d="M231.271,240.734s1.586-.841,2.148-.091,7.687,1.875,7.687,2.437,1.5,15.749,1.125,17.062a3.821,3.821,0,0,0,.75,2.812l1.312,5.625s3.562,10.687,2.062,11.062a9.762,9.762,0,0,1-3.375,0c-.562,0-.375-7.125-1.875-9a42.18,42.18,0,0,1-3.937-7.5c-.375-.937-5.062-13.874-4.875-15.374S231.271,240.734,231.271,240.734Z" transform="translate(-202.511 -210.089)" fill="#d0cde1"/>
      <path id="Tracé_1114" data-name="Tracé 1114" d="M140.7,248.18s-1.5,0-1.687.375a20.521,20.521,0,0,1-2.812,3.375c-.75.562-3.375,3-3.375,3.562s5.437,4.687,5.437,4.687,2.25,11.062,1.125,14.812-2.812,12.749-2.062,13.312,2.437.75,2.437,0,1.125-8.812,2.062-10.5,3.75-12.374,2.625-15.374S140.7,248.18,140.7,248.18Z" transform="translate(-119.724 -216.689)" fill="#d0cde1"/>
      <path id="Tracé_1115" data-name="Tracé 1115" d="M267.514,364.847s.188,5.812-1.875,8.812a35.63,35.63,0,0,0-3.375,6.375s-3.375-.937-3.937-2.062-4.125-.187-4.125-.562,4.312-2.25,4.687-2.625,1.687-.375,2.437-1.125a4.962,4.962,0,0,0,.937-2.437l.75-4.875Z" transform="translate(-221.794 -314.795)" fill="#9f616a"/>
      <path id="Tracé_1116" data-name="Tracé 1116" d="M174.129,142.946a3.565,3.565,0,0,0,1.388-.318,1.858,1.858,0,0,0,.475-2.751,3.555,3.555,0,0,0-.659-.53l-1.425-.97a6.97,6.97,0,0,0-2.011-1.067,6.276,6.276,0,0,0-2.056-.121,13.889,13.889,0,0,0-3.937.716,6.589,6.589,0,0,0-3.19,2.334,7.013,7.013,0,0,0-.559,6.116,20.746,20.746,0,0,0,3.171,5.49l.645-3.149a1.163,1.163,0,0,1,.365-.754c.58-.413,1.289.435,2,.429a1.2,1.2,0,0,0,1.014-.8,4.575,4.575,0,0,0,.225-1.347,3.689,3.689,0,0,1,1.336-2.839C171.764,142.887,173.172,143.033,174.129,142.946Z" transform="translate(-144.022 -123.332)" fill="#2f2e41"/>
      <path id="Tracé_1117" data-name="Tracé 1117" d="M231.35,498.66s-.633,18.316-1.008,18.879,0-18.936,0-18.936Z" transform="translate(-201.589 -427.271)" opacity="0.1"/>
      <path id="Tracé_1118" data-name="Tracé 1118" d="M283.664,257.607h1.5s6.375,8.624,5.625,9.187,0,2.062,0,2.062l1.5,2.812s1.875,1.687,1.312,2.062a6.851,6.851,0,0,0-1.312,1.875s-3.75-.562-4.875,1.687l-2.432-3.07Z" transform="translate(-246.568 -224.617)" fill="#d0cde1"/>
      <rect id="Rectangle_190" data-name="Rectangle 190" width="5.568" height="10.377" transform="translate(32.479 37.89) rotate(-22.438)" fill="#2f2e41"/>
      <ellipse id="Ellipse_105" data-name="Ellipse 105" cx="1.114" cy="1.023" rx="1.114" ry="1.023" transform="translate(35.212 39.924) rotate(-22.438)" fill="#6c63ff"/>
      <path id="Tracé_1119" data-name="Tracé 1119" d="M173.623,309.278s-13.5,11.249-15.749,7.687,2.437-6.562,2.437-6.562a16.514,16.514,0,0,0,8.812-2.812l4.687-2.062s4.279-6.109,5.737-3.783S177.059,308.121,173.623,309.278Z" transform="translate(-140.278 -261.288)" fill="#9f616a"/>
      <path id="Tracé_1120" data-name="Tracé 1120" d="M130.919,289.426l-2.062.75V295.8l-.75,1.125s.188,2.25.75,2.812,1.687.375,1.312,1.687a7.106,7.106,0,0,0-.187,2.625s3.375,4.312,3.562,3.75,2.812-7.5,3.187-7.5-3.75-10.874-3.75-10.874Z" transform="translate(-115.76 -251.373)" fill="#d0cde1"/>
      <path id="Tracé_1121" data-name="Tracé 1121" d="M279.684,450.724s1.939-1.875.969-1.969-4.344-1.969-4.907-1.031S279.684,450.724,279.684,450.724Z" transform="translate(-239.87 -384.266)" fill="#2f2e41"/>
      <ellipse id="Ellipse_106" data-name="Ellipse 106" cx="2.5" cy="1.5" rx="2.5" ry="1.5" transform="translate(74.258 28.293)" fill="#57b894"/>
      <path id="Tracé_1122" data-name="Tracé 1122" d="M500.8,217.5a25.086,25.086,0,0,0-18.3,0v-7.478a31.666,31.666,0,0,1,18.3,0Z" transform="translate(-413.77 -183.468)" fill="none" stroke="#3f3d56" stroke-miterlimit="10" stroke-width="0.5"/>
      <path id="Tracé_1123" data-name="Tracé 1123" d="M511.705,220.765a18.105,18.105,0,0,0-13.205,0v-5.4a22.855,22.855,0,0,1,13.205,0Z" transform="translate(-427.225 -188.278)" fill="none" stroke="#3f3d56" stroke-miterlimit="10" stroke-width="0.5"/>
      <ellipse id="Ellipse_107" data-name="Ellipse 107" cx="2.5" cy="1.5" rx="2.5" ry="1.5" transform="translate(75.258 27.293)" fill="none" stroke="#3f3d56" stroke-miterlimit="10" stroke-width="2"/>
      <ellipse id="Ellipse_108" data-name="Ellipse 108" cx="2.705" cy="1.432" rx="2.705" ry="1.432" transform="matrix(0.98, -0.2, 0.2, 0.98, 75.45, 37.395)" fill="#57b894"/>
      <path id="Tracé_1124" data-name="Tracé 1124" d="M510.232,267.673a25.086,25.086,0,0,0-17.927,3.659l-1.5-7.326a31.666,31.666,0,0,1,17.927-3.659Z" transform="translate(-420.759 -226.808)" fill="none" stroke="#3f3d56" stroke-miterlimit="10" stroke-width="0.5"/>
      <path id="Tracé_1125" data-name="Tracé 1125" d="M521.177,272.321a18.105,18.105,0,0,0-12.938,2.641l-1.079-5.288a22.854,22.854,0,0,1,12.938-2.641Z" transform="translate(-434.506 -232.462)" fill="none" stroke="#3f3d56" stroke-miterlimit="10" stroke-width="0.5"/>
      <ellipse id="Ellipse_109" data-name="Ellipse 109" cx="2.705" cy="1.432" rx="2.705" ry="1.432" transform="matrix(0.98, -0.2, 0.2, 0.98, 76.258, 36.58)" fill="none" stroke="#3f3d56" stroke-miterlimit="10" stroke-width="2"/>
      <ellipse id="Ellipse_110" data-name="Ellipse 110" cx="1.432" cy="2.705" rx="1.432" ry="2.705" transform="translate(75.029 48.397) rotate(-86.019)" fill="#57b894"/>
      <path id="Tracé_1126" data-name="Tracé 1126" d="M505.965,330.778a25.086,25.086,0,0,0-18.252-1.27l.519-7.459a31.666,31.666,0,0,1,18.252,1.27Z" transform="translate(-418.154 -278.143)" fill="none" stroke="#3f3d56" stroke-miterlimit="10" stroke-width="0.5"/>
      <path id="Tracé_1127" data-name="Tracé 1127" d="M517.522,333.969a18.106,18.106,0,0,0-13.173-.917l.375-5.384a22.855,22.855,0,0,1,13.173.917Z" transform="translate(-432.143 -283.053)" fill="none" stroke="#3f3d56" stroke-miterlimit="10" stroke-width="0.5"/>
      <ellipse id="Ellipse_111" data-name="Ellipse 111" cx="1.432" cy="2.705" rx="1.432" ry="2.705" transform="translate(76.025 47.828) rotate(-86.019)" fill="none" stroke="#3f3d56" stroke-miterlimit="10" stroke-width="2"/>
      <path id="Tracé_1128" data-name="Tracé 1128" d="M359.483,263.93s-11.693-1.6-20.043,3.294" transform="translate(-293.471 -229.723)" fill="none" stroke="#3f3d56" stroke-miterlimit="10" stroke-width="2"/>
      <path id="Tracé_1129" data-name="Tracé 1129" d="M287.655,224.459l.3.1-.475,1.5,1.526.364-.074.31-1.859-.444Z" transform="translate(-241.404 -188.603)" fill="#3f3d56"/>
    </g>
  </g>
</svg>
